<svg height="512" viewBox="0 0 496.92 496.92" width="512" xmlns="http://www.w3.org/2000/svg"><path d="M304.124 431.106H194.51l-11.66 19.104 2.33 27.84c.89 10.67 9.81 18.87 20.52 18.87h84.52c10.71 0 19.63-8.2 20.52-18.87l2.33-27.84z" fill="#f9f7f8"/><path d="m250.545 478.05-2.33-27.84 11.66-19.104H194.51l-11.66 19.104 2.33 27.84c.89 10.67 9.81 18.87 20.52 18.87h65.365c-10.71 0-19.63-8.2-20.52-18.87z" fill="#efedef"/><path d="m175.627 381.365 3.303 22.135 3.92 46.71h130.22l3.92-46.71 2.793-22.135z" fill="#efedef"/><path d="m175.627 381.365 3.303 22.135 3.92 46.71h65.365l-.555-6.612c-.908-10.817 7.627-20.098 18.482-20.098h49.17l1.678-20 2.793-22.135z" fill="#e5e1e5"/><path d="M388.93 0H107.99c-4.25 0-7.7 3.45-7.7 7.7v38.93l44.969 12.172h226.756L396.63 46.63V7.7c0-4.25-3.45-7.7-7.7-7.7z" fill="#efedef"/><path d="M333.589 266.256H170.526L150.33 315.19l9.26 70.47c.089.676.215 1.339.367 1.991l19.427 2.867 69.914 11.213c4.617.989 28.761 1.77 28.761 1.77h38.93c10.3 0 18.99-7.63 20.34-17.84l9.26-70.47z" fill="#f9f7f8"/><path d="m257.72 385.66-9.26-70.47-6.433-48.934h-71.5L150.33 315.19l9.26 70.47c1.35 10.21 10.04 17.84 20.34 17.84h98.13c-10.3 0-18.99-7.63-20.34-17.84z" fill="#efedef"/><path d="m396.63 46.63-17.11 18.08-32.93 250.48H150.33L117.4 64.71l-17.11-18.08z" fill="#fec165"/><path d="M198.42 46.63V7.7c0-4.25 3.45-7.7 7.7-7.7h-98.13c-4.25 0-7.7 3.45-7.7 7.7v38.93l44.969 12.172h64.68z" fill="#e5e1e5"/><path d="M198.42 46.63h-98.13l17.11 18.08 32.93 250.48h98.13L216.588 72.757a25.027 25.027 0 0 0-6.637-13.942z" fill="#fdb441"/><path d="M247.96 230.658c-29.116 0-52.804-23.688-52.804-52.804s23.688-52.804 52.804-52.804 52.804 23.688 52.804 52.804-23.688 52.804-52.804 52.804zm0-90.609c-20.845 0-37.804 16.959-37.804 37.804s16.959 37.804 37.804 37.804 37.804-16.959 37.804-37.804-16.959-37.804-37.804-37.804zm.435-28.66a7.5 7.5 0 0 1-7.5-7.5v-6.938a7.5 7.5 0 0 1 15 0v6.938a7.5 7.5 0 0 1-7.5 7.5zm52.173 21.971a7.5 7.5 0 0 1-5.303-12.803l4.905-4.906a7.5 7.5 0 0 1 10.607 10.607l-4.905 4.906a7.482 7.482 0 0 1-5.304 2.196zm28.294 52.428h-6.938a7.5 7.5 0 0 1 0-15h6.938a7.5 7.5 0 0 1 0 15zm-24.003 57.08a7.474 7.474 0 0 1-5.303-2.197l-4.906-4.906a7.5 7.5 0 0 1 0-10.606 7.5 7.5 0 0 1 10.606 0l4.906 4.906a7.5 7.5 0 0 1-5.303 12.803zm-57.333 23.388a7.5 7.5 0 0 1-7.5-7.5v-6.938a7.5 7.5 0 0 1 15 0v6.938a7.5 7.5 0 0 1-7.5 7.5zm-57.08-24.003a7.5 7.5 0 0 1-5.303-12.803l4.905-4.906a7.5 7.5 0 0 1 10.607 10.607l-4.905 4.906a7.478 7.478 0 0 1-5.304 2.196zm-16.451-57.334h-6.938a7.5 7.5 0 0 1 0-15h6.938a7.5 7.5 0 0 1 0 15zm21.971-52.173a7.474 7.474 0 0 1-5.303-2.197l-4.906-4.906a7.5 7.5 0 0 1 0-10.606 7.5 7.5 0 0 1 10.606 0l4.906 4.906a7.5 7.5 0 0 1-5.303 12.803z" fill="#fef056"/><path d="M266.649 465.301h-37.378a7.784 7.784 0 0 1-7.784-7.784v-14.611a7.784 7.784 0 0 1 7.784-7.784h37.378a7.784 7.784 0 0 1 7.784 7.784v14.611a7.784 7.784 0 0 1-7.784 7.784z" fill="#d7d0d6"/><path d="M244.592 457.517v-14.611a7.784 7.784 0 0 1 7.784-7.784h-23.105a7.784 7.784 0 0 0-7.784 7.784v14.611a7.784 7.784 0 0 0 7.784 7.784h23.105a7.784 7.784 0 0 1-7.784-7.784z" fill="#c9bfc8"/></svg>