<svg xmlns="http://www.w3.org/2000/svg" viewBox="0 0 511.999 511.999" style="enable-background:new 0 0 511.999 511.999" xml:space="preserve"><path style="fill:#394049" d="m125.267 291.795-65.135 50.893a12.931 12.931 0 0 1-14.812.779l-10.449-6.525c-4.734-2.956-4.955-9.772-.42-13.027l74.986-53.836 15.83 21.716z"/><path style="opacity:.3;enable-background:new" d="m109.437 270.08-64.625 46.398c5.618 10.288 11.862 17.864 18.915 23.403l61.541-48.085-15.831-21.716z"/><path style="fill:#394049" d="m386.732 291.795 65.135 50.893a12.931 12.931 0 0 0 14.812.779l10.449-6.525c4.734-2.956 4.955-9.772.42-13.027l-74.986-53.836-15.83 21.716z"/><path style="opacity:.3;enable-background:new" d="m402.563 270.08 64.625 46.398c-5.618 10.288-11.862 17.864-18.915 23.403l-61.541-48.085 15.831-21.716z"/><path style="fill:#394049" d="M256 227.665c24.947 0 29.086 8.757 38.999 11.715 5.933 1.769 153.921-.695 194.276-1.58a14.762 14.762 0 0 0 13.433-9.394c1.572-4.023 3.362-8.589 4.763-12.161a45.134 45.134 0 0 0 2.967-12.821l1.521-18.691a12.25 12.25 0 0 0-10.403-13.112c-19.208-2.868-60.598-8.386-121.117-3.517-62.567 5.033-98.204 22.728-124.439 22.728s-61.872-17.695-124.439-22.728c-60.519-4.869-101.909.649-121.117 3.517A12.25 12.25 0 0 0 .041 184.733l1.521 18.691a45.118 45.118 0 0 0 2.967 12.821c1.401 3.571 3.191 8.138 4.763 12.161a14.762 14.762 0 0 0 13.433 9.394c40.355.884 188.343 3.349 194.276 1.58 9.913-2.958 14.051-11.715 38.999-11.715z"/><path style="fill:#5f666f" d="M129.974 192.856c-46.669-3.141-118.846-14.226-88.916 83.354 18.524 60.393 44.456 69.62 88.916 69.62 31.861 0 79.283-9.236 91.879-69.62 12.596-60.384-14.819-78.167-91.879-83.354z"/><path style="opacity:.2;enable-background:new" d="M129.974 192.856c-39.738-2.674-97.952-11.092-95.897 46.698 1.977-51.412 57.544-43.481 95.897-40.9 63.581 4.28 93.361 17.138 94.76 55.421 1.429-42.801-28.072-56.73-94.76-61.219z"/><path style="fill:#5f666f" d="M382.026 192.856c46.669-3.141 118.846-14.226 88.916 83.354-18.525 60.393-44.456 69.62-88.916 69.62-31.861 0-79.283-9.236-91.879-69.62-12.597-60.384 14.818-78.167 91.879-83.354z"/><path style="opacity:.2;enable-background:new" d="M382.026 192.856c39.738-2.674 97.952-11.092 95.897 46.698-1.977-51.412-57.544-43.481-95.897-40.9-63.581 4.28-93.361 17.138-94.76 55.421-1.429-42.801 28.071-56.73 94.76-61.219z"/><path style="fill:#c3c4c7" d="M27.311 200.149h-4.864c-4.494 0-8.137-3.642-8.137-8.137s3.643-8.137 8.137-8.137h4.864a8.137 8.137 0 1 1 0 16.274zm462.241 0h-4.864c-4.494 0-8.137-3.642-8.137-8.137s3.643-8.137 8.137-8.137h4.864a8.136 8.136 0 0 1 8.137 8.137 8.136 8.136 0 0 1-8.137 8.137z"/><path style="opacity:.1;fill:#fff;enable-background:new" d="M129.974 192.856c-46.669-3.141-118.846-14.226-88.916 83.354 4.257 13.879 8.907 25.049 14.081 34.032L168.09 197.29c-11.007-2.051-23.692-3.463-38.116-4.434zm340.099 15.526L339.69 338.765c14.456 5.593 29.632 7.065 42.335 7.065 44.46 0 70.391-9.227 88.916-69.62 10.564-34.442 8.398-55.335-.868-67.828z"/></svg>