<svg width="332" height="326" fill="none" xmlns="http://www.w3.org/2000/svg"><path d="M165.979 0C74.326 0 0 74.826 0 167.131c0 73.828 47.559 136.46 113.544 158.579 8.3 1.54 11.33-3.62 11.33-8.053 0-3.974-.146-14.482-.229-28.424-46.168 10.092-55.921-22.41-55.921-22.41-7.532-19.31-18.426-24.45-18.426-24.45-15.085-10.362 1.12-10.154 1.12-10.154 16.663 1.186 25.42 17.229 25.42 17.229 14.815 25.532 38.864 18.166 48.326 13.879 1.494-10.799 5.789-18.165 10.541-22.348-36.852-4.224-75.613-18.561-75.613-82.587 0-18.249 6.474-33.168 17.098-44.863-1.722-4.224-7.408-21.224 1.618-44.217 0 0 13.944-4.495 45.651 17.125 13.238-3.704 27.431-5.556 41.562-5.618 14.089.083 28.303 1.914 41.562 5.639 31.685-21.62 45.608-17.125 45.608-17.125 9.047 23.014 3.362 39.993 1.66 44.217 10.645 11.694 17.057 26.614 17.057 44.863 0 64.193-38.803 78.321-75.779 82.462 5.955 5.161 11.267 15.357 11.267 30.942 0 22.348-.207 40.368-.207 45.84 0 4.474 2.988 9.676 11.412 8.032C284.482 303.549 332 240.938 332 167.131 332 74.826 257.674 0 165.979 0Z" fill="#fff"/></svg>