<svg width="336" height="273" fill="none" xmlns="http://www.w3.org/2000/svg"><path d="M336 32.319c-12.495 5.481-25.809 9.114-39.69 10.878 14.28-8.526 25.179-21.924 30.303-38.073-13.314 7.938-28.014 13.545-43.68 16.674C270.291 8.337 252.273 0 232.617 0c-38.136 0-68.838 30.954-68.838 68.901 0 5.46.462 10.71 1.596 15.708-57.267-2.793-107.94-30.24-141.981-72.051-5.943 10.311-9.429 22.113-9.429 34.818 0 23.856 12.285 45.003 30.597 57.246-11.067-.21-21.924-3.423-31.122-8.484v.756c0 33.474 23.877 61.278 55.188 67.683-5.607 1.533-11.718 2.268-18.06 2.268-4.41 0-8.862-.252-13.041-1.176 8.925 27.279 34.251 47.334 64.365 47.985-23.436 18.333-53.193 29.379-85.407 29.379-5.649 0-11.067-.252-16.485-.945C30.513 261.765 66.675 273 105.672 273c126.756 0 196.056-105 196.056-196.014 0-3.045-.105-5.985-.252-8.904C315.147 58.38 326.634 46.263 336 32.319Z" fill="#fff"/></svg>