<svg width="512" height="512" fill="none" xmlns="http://www.w3.org/2000/svg"><path d="m498.81 435.172-113.44-113.44L261.486 32.688a15 15 0 0 0-11.665-8.94L84.635.153c-8.191-1.173-15.8 4.527-16.97 12.73-5.839 40.935 22.711 78.995 63.643 84.845l64.059 9.152 66.356 154.844-154.843-66.357-9.153-64.058c-5.849-40.932-43.906-69.483-84.844-63.644-8.198 1.17-13.902 8.77-12.73 16.971l23.595 165.185a14.998 14.998 0 0 0 8.94 11.666L321.733 385.37l113.439 113.439c17.586 17.586 46.05 17.589 63.639 0 17.584-17.584 17.588-46.049-.001-63.637Zm-157.908-73.057a14.997 14.997 0 0 0-4.696-3.18L52.254 237.233 32.336 97.791c18.158 3.664 32.928 18.405 35.694 37.761l10.345 72.403a15 15 0 0 0 8.94 11.666l197.057 84.447a15 15 0 0 0 19.695-19.696L219.62 87.315a14.998 14.998 0 0 0-11.665-8.94l-72.404-10.346c-19.355-2.766-34.098-17.535-37.76-35.694l139.442 19.918 121.701 283.951a14.988 14.988 0 0 0 3.181 4.697l17.563 17.563-21.213 21.212-17.563-17.561Zm38.776 38.776 21.212-21.213 21.213 21.213-21.212 21.212-21.213-21.212Zm97.919 76.706c-5.862 5.862-15.349 5.864-21.212 0l-34.281-34.281 21.212-21.213 34.281 34.281c5.862 5.861 5.864 15.35 0 21.213Z" fill="url(#a)"/><defs><linearGradient id="a" x1="153.324" y1="383.638" x2="383.638" y2="153.323" gradientUnits="userSpaceOnUse"><stop stop-color="#4787C1"/><stop offset="1" stop-color="#00C0FF"/></linearGradient></defs></svg>