<svg height="512" width="512" xmlns="http://www.w3.org/2000/svg"><path d="M160 24h64v32h-64z" fill="#d0d2d4"/><path d="M288 56h-8.8A40.069 40.069 0 0 0 240 24h-96a8 8 0 0 0 0 16h96a24.039 24.039 0 0 1 22.624 16H160a16 16 0 0 0-16 16v80h160V72a16 16 0 0 0-16-16zm24 344c-35.888 0-64-52.71-64-120s28.112-120 64-120 64 52.71 64 120-28.112 120-64 120zm0-224c-11.6 0-23.424 10.345-32.442 28.382C269.525 224.446 264 251.3 264 280s5.525 55.554 15.558 75.618C288.576 373.655 300.4 384 312 384s23.424-10.345 32.442-28.382C354.475 335.554 360 308.7 360 280s-5.525-55.554-15.558-75.618C335.424 186.345 323.6 176 312 176z" fill="#3397e8"/><circle cx="312" cy="168" fill="#d0d2d4" r="16"/><rect fill="#e9eef2" height="336" rx="16" width="176" x="136" y="152"/><path d="M312 224v248a16 16 0 0 1-16 16H152a16 16 0 0 1-16-16V224s24-8 48-8c40 0 40 24 80 24 24 0 48-16 48-16z" fill="#a3d4f7"/><path d="M256 128H144a8 8 0 0 1 0-16h112a8 8 0 0 1 0 16zm48 0h-16a8 8 0 0 1 0-16h16a8 8 0 0 1 0 16z" fill="#d0d2d4"/></svg>