<svg height="512" width="512" xmlns="http://www.w3.org/2000/svg"><g clip-rule="evenodd" fill-rule="evenodd"><path d="M139.283 437.418c30.303 0 60.095 20.183 90.398 20.183h235.788v-39.487c0-65.962-56.41-72.255-119.964-89.973l-71.831-19.984c-31.266-8.702-47.282-13.578-47.282-47.282V46.262H41.599v391.156z" fill="#bf8e5e"/><path d="M98.803 349.685V51.251H41.599v22.507l2.892 7.2-2.892 7.795v18.142l2.892 7.314-2.892 7.682v18.142l4.252 7.427-4.252 7.597V173.2l3.373 7.653-3.373 7.342v18.142l3.118 8.022-3.118 6.973v18.143l3.742 7.738-3.742 7.257v18.142l2.892 7.37-2.892 7.625v18.142l3.118 8.107-3.118 6.917v20.722c18.114.366 37.645 3.23 57.204 8.19zm97.598-68.798c0 33.676 15.988 38.552 47.254 47.254l69.903 19.474V319.24l-39.884-11.084c-31.266-8.702-47.282-13.578-47.282-47.282V46.262h-29.991z" fill="#a87547"/><path d="M465.468 452.611v-34.497c0-65.962-56.41-72.255-119.964-89.973l-31.946-8.9v40.337c0 18.794 15.392 34.186 34.186 34.186h38.835c18.794 0 34.186 15.393 34.186 34.215v24.633h44.703zm-326.185-20.182c30.303 0 60.095 20.183 90.398 20.183h12.132c-17.406-61.569-122.26-109.532-200.214-111.119v90.936z" fill="#ffc269"/><path d="M211.169 450.4c6.151 1.361 12.331 2.211 18.511 2.211h12.132C224.407 391.043 119.553 343.08 41.599 341.493v2.664c71.604 10.857 152.733 53.348 169.57 106.243z" fill="#ffa95f"/><path d="M32.359 51.251h203.274c3.316 0 6.009-2.693 6.009-5.981V6.01A6.013 6.013 0 0 0 235.633 0H32.359a6.013 6.013 0 0 0-6.01 6.01v39.26c0 3.288 2.693 5.981 6.01 5.981zm110.609 456.041c10.12-10.941 27.128-18.255 46.573-18.255 19.417 0 36.596 7.2 46.574 18.255 4.422 4.933 3.26 4.706 9.695 4.706h233.831c3.289 0 6.01-2.693 6.01-5.981v-47.424c0-3.289-2.721-5.982-6.01-5.982H229.68c-30.303 0-60.095-20.183-90.398-20.183H32.358a6.013 6.013 0 0 0-6.01 6.009v67.579c0 3.288 2.693 5.981 6.01 5.981h100.914c6.011.001 5.699-.395 9.696-4.705z" fill="#407093"/><path d="M205.642 51.251h29.991c3.316 0 6.009-2.693 6.009-5.981V6.01A6.013 6.013 0 0 0 235.633 0h-29.991c3.288 0 6.009 2.693 6.009 6.01v39.26c0 3.288-2.721 5.981-6.009 5.981zM449.65 511.998h29.991c3.289 0 6.01-2.693 6.01-5.981v-47.424c0-3.289-2.721-5.982-6.01-5.982H449.65c3.288 0 5.981 2.693 5.981 5.982v47.424c0 3.288-2.693 5.981-5.981 5.981z" fill="#365e7d"/><path d="M63.342 511.998h38.92v-25.597c0-3.288-2.693-5.981-5.981-5.981h-26.93c-3.289 0-6.01 2.693-6.01 5.981l.001 25.597zm241.372-22.734a6.012 6.012 0 0 0-6.009-6.009h-26.901a6.012 6.012 0 0 0-6.009 6.009v22.734h38.92l-.001-22.734zm69.959 0c0-3.316-2.693-6.009-5.981-6.009h-26.93c-3.288 0-5.981 2.693-5.981 6.009v22.734h38.892v-22.734zm69.988 0a6.012 6.012 0 0 0-6.009-6.009h-26.901c-3.288 0-6.009 2.693-6.009 6.009v22.734h38.919v-22.734z" fill="#2b4d66"/></g><path d="M41.599 73.758H68.5c4.139 0 7.483 3.345 7.483 7.512a7.476 7.476 0 0 1-7.483 7.483H41.599zm0 231.99H68.5c4.139 0 7.483 3.373 7.483 7.512s-3.345 7.512-7.483 7.512H41.599zm0-33.138H68.5c4.139 0 7.483 3.374 7.483 7.512a7.476 7.476 0 0 1-7.483 7.483H41.599zm0-33.137H68.5c4.139 0 7.483 3.373 7.483 7.512s-3.345 7.483-7.483 7.483H41.599zm0-33.138H68.5a7.476 7.476 0 0 1 7.483 7.483c0 4.167-3.345 7.512-7.483 7.512H41.599zm0-33.136H68.5a7.476 7.476 0 0 1 7.483 7.483c0 4.139-3.345 7.512-7.483 7.512H41.599zm0-33.166H68.5c4.139 0 7.483 3.373 7.483 7.512s-3.345 7.512-7.483 7.512H41.599zm0-33.138H68.5c4.139 0 7.483 3.374 7.483 7.512a7.476 7.476 0 0 1-7.483 7.484H41.599z" fill="#ffc269"/><path d="M247.34 368.507c-2.041 3.572-6.605 4.819-10.205 2.75-3.571-2.041-4.791-6.605-2.75-10.205l35.263-61.03c2.041-3.6 6.604-4.819 10.205-2.778 3.572 2.069 4.79 6.633 2.75 10.204zm-86.344-238.509c-4.139 0-7.512-3.345-7.512-7.483 0-4.139 3.374-7.512 7.512-7.512h70.498c4.139 0 7.512 3.373 7.512 7.512s-3.373 7.483-7.512 7.483zm0 55.021c-4.139 0-7.512-3.373-7.512-7.512s3.374-7.512 7.512-7.512h70.498c4.139 0 7.512 3.373 7.512 7.512s-3.373 7.512-7.512 7.512zm0 54.993c-4.139 0-7.512-3.374-7.512-7.512 0-4.139 3.374-7.484 7.512-7.484h70.498c4.139 0 7.512 3.345 7.512 7.484 0 4.138-3.373 7.512-7.512 7.512zm17.263 83.707c-3.572 2.069-8.135.822-10.205-2.75-2.042-3.572-.823-8.136 2.749-10.176l61.059-35.264c3.6-2.041 8.164-.822 10.205 2.75 2.069 3.572.822 8.136-2.749 10.205z" fill="#2b4d66"/><path clip-rule="evenodd" d="M313.558 319.241v28.375c2.721.737 5.414 1.503 8.135 2.24 61.002 16.469 113.784 24.435 113.784 88.271v14.485h29.991v-34.497c0-65.962-56.41-72.255-119.964-89.973z" fill="#ffa95f" fill-rule="evenodd"/></svg>