<svg width="513" height="513" fill="none" xmlns="http://www.w3.org/2000/svg"><g clip-path="url(#a)"><path d="M443.966 45.03C409.641 18.044 336.19 1.062 333.075.358c-5.744-1.308-11.461 2.288-12.768 8.032a10.68 10.68 0 0 0-.266 2.357c0 14.4-29.547 32-64 32s-64-17.6-64-32a10.663 10.663 0 0 0-4.011-8.341 10.411 10.411 0 0 0-9.024-2.133c-3.115.704-76.544 17.707-110.933 44.672-35.52 28.032-45.632 163.115-46.699 178.411C21.082 227.703 14.074 460.11 18 462c25.062 11.606 62.039 15.136 89.5 18.081h-.793a10.666 10.666 0 0 0 5.675 9.408c1.728.939 43.605 22.592 143.659 22.592s141.931-21.653 143.659-22.592a10.668 10.668 0 0 0 5.675-9.408c27.454-2.947 50.569 3.022 75.625-8.581 3.934-1.884 9.996-243.792 9.708-248.144-1.067-15.296-11.179-150.379-46.742-178.326Z" fill="#03A9F4"/><path d="M107.5 480c-5.891 0-7.332-7.109-7.332-13l6.539-285.586a85.333 85.333 0 0 0-18.219-56.448c-4.092-4.237-3.975-10.99.262-15.083 4.134-3.992 10.687-3.992 14.82 0a104.298 104.298 0 0 1 24.469 71.531L121.5 467c.002 5.891-8.109 13-14 13Zm294 1c-5.891 0-13.334-5.109-13.334-11l-4.126-288.586a104.302 104.302 0 0 1 24.448-71.552c4.093-4.237 10.845-4.355 15.083-.262 4.237 4.093 4.354 10.845.262 15.083-.086.089-.173.176-.262.262a85.33 85.33 0 0 0-18.197 56.469L409.5 470c0 5.891-2.109 11-8 11Z" fill="#0288D1"/><path d="M337.491 2.534a10.517 10.517 0 0 0-8.789-2.261 645.688 645.688 0 0 1-72.661 10.475A645.197 645.197 0 0 1 183.38.273a10.538 10.538 0 0 0-8.789 2.261 10.668 10.668 0 0 0-3.883 8.213c0 32 44.117 53.333 85.333 53.333s85.333-21.333 85.333-53.333a10.665 10.665 0 0 0-3.883-8.213Z" fill="#1976D2"/></g><defs><clipPath id="a"><path fill="#fff" d="M0 0h512.081v512.081H0z"/></clipPath></defs></svg>