<svg id="Capa_1" enable-background="new 0 0 512 512" height="512" viewBox="0 0 512 512" width="512" xmlns="http://www.w3.org/2000/svg"><g><g clip-rule="evenodd" fill-rule="evenodd"><path d="m139.283 437.418c30.303 0 60.095 20.183 90.398 20.183h235.788v-39.487c0-65.962-56.41-72.255-119.964-89.973l-71.831-19.984c-31.266-8.702-47.282-13.578-47.282-47.282v-214.613h-184.793v391.156z" fill="#bf8e5e"/><path d="m98.803 349.685v-298.434h-57.204v22.507l2.892 7.2-2.892 7.795v18.142l2.892 7.314-2.892 7.682v18.142l4.252 7.427-4.252 7.597v18.143l3.373 7.653-3.373 7.342v18.142l3.118 8.022-3.118 6.973v18.143l3.742 7.738-3.742 7.257v18.142l2.892 7.37-2.892 7.625v18.142l3.118 8.107-3.118 6.917v20.722c18.114.366 37.645 3.23 57.204 8.19z" fill="#a87547"/><path d="m196.401 280.887c0 33.676 15.988 38.552 47.254 47.254l69.903 19.474v-28.375l-39.884-11.084c-31.266-8.702-47.282-13.578-47.282-47.282v-214.612h-29.991z" fill="#a87547"/><path d="m465.468 452.611v-34.497c0-65.962-56.41-72.255-119.964-89.973l-31.946-8.9v40.337c0 18.794 15.392 34.186 34.186 34.186h38.835c18.794 0 34.186 15.393 34.186 34.215v24.633h44.703z" fill="#ffc269"/><path d="m139.283 432.429c30.303 0 60.095 20.183 90.398 20.183h12.132c-17.406-61.569-122.26-109.532-200.214-111.119v90.936z" fill="#ffc269"/><path d="m211.169 450.4c6.151 1.361 12.331 2.211 18.511 2.211h12.132c-17.405-61.568-122.259-109.531-200.213-111.118v2.664c71.604 10.857 152.733 53.348 169.57 106.243z" fill="#ffa95f"/><path d="m32.359 51.251h203.274c3.316 0 6.009-2.693 6.009-5.981v-39.26c0-3.316-2.693-6.01-6.009-6.01h-203.274c-3.317 0-6.01 2.693-6.01 6.01v39.26c0 3.288 2.693 5.981 6.01 5.981zm110.609 456.041c10.12-10.941 27.128-18.255 46.573-18.255 19.417 0 36.596 7.2 46.574 18.255 4.422 4.933 3.26 4.706 9.695 4.706h233.831c3.289 0 6.01-2.693 6.01-5.981v-47.424c0-3.289-2.721-5.982-6.01-5.982-98.306 0-151.626 0-249.961 0-30.303 0-60.095-20.183-90.398-20.183-35.661 0-71.292 0-106.924 0-3.317 0-6.01 2.693-6.01 6.009v67.579c0 3.288 2.693 5.981 6.01 5.981h100.914c6.011.001 5.699-.395 9.696-4.705z" fill="#407093"/><path d="m205.642 51.251h29.991c3.316 0 6.009-2.693 6.009-5.981v-39.26c0-3.316-2.693-6.01-6.009-6.01h-29.991c3.288 0 6.009 2.693 6.009 6.01v39.26c0 3.288-2.721 5.981-6.009 5.981zm244.008 460.747h29.991c3.289 0 6.01-2.693 6.01-5.981v-47.424c0-3.289-2.721-5.982-6.01-5.982h-29.991c3.288 0 5.981 2.693 5.981 5.982v47.424c0 3.288-2.693 5.981-5.981 5.981z" fill="#365e7d"/><path d="m63.342 511.998h38.92c0-8.532 0-17.064 0-25.597 0-3.288-2.693-5.981-5.981-5.981h-26.93c-3.289 0-6.01 2.693-6.01 5.981.001 8.533.001 17.065.001 25.597zm241.372-22.734c0-3.316-2.693-6.009-6.009-6.009h-26.901c-3.316 0-6.009 2.693-6.009 6.009v22.734h38.92c-.001-7.568-.001-15.165-.001-22.734zm69.959 0c0-3.316-2.693-6.009-5.981-6.009h-26.93c-3.288 0-5.981 2.693-5.981 6.009v22.734h38.892c0-7.568 0-15.165 0-22.734zm69.988 0c0-3.316-2.693-6.009-6.009-6.009h-26.901c-3.288 0-6.009 2.693-6.009 6.009v22.734h38.919c0-7.568 0-15.165 0-22.734z" fill="#2b4d66"/></g><path d="m41.599 73.758h26.901c4.139 0 7.483 3.345 7.483 7.512 0 4.139-3.345 7.483-7.483 7.483h-26.901zm0 231.99h26.901c4.139 0 7.483 3.373 7.483 7.512s-3.345 7.512-7.483 7.512h-26.901zm0-33.138h26.901c4.139 0 7.483 3.374 7.483 7.512 0 4.139-3.345 7.483-7.483 7.483h-26.901zm0-33.137h26.901c4.139 0 7.483 3.373 7.483 7.512s-3.345 7.483-7.483 7.483h-26.901zm0-33.138h26.901c4.139 0 7.483 3.345 7.483 7.483 0 4.167-3.345 7.512-7.483 7.512h-26.901zm0-33.136h26.901c4.139 0 7.483 3.345 7.483 7.483 0 4.139-3.345 7.512-7.483 7.512h-26.901zm0-33.166h26.901c4.139 0 7.483 3.373 7.483 7.512s-3.345 7.512-7.483 7.512h-26.901zm0-33.138h26.901c4.139 0 7.483 3.374 7.483 7.512 0 4.139-3.345 7.484-7.483 7.484h-26.901z" fill="#ffc269"/><path d="m247.34 368.507c-2.041 3.572-6.605 4.819-10.205 2.75-3.571-2.041-4.791-6.605-2.75-10.205l35.263-61.03c2.041-3.6 6.604-4.819 10.205-2.778 3.572 2.069 4.79 6.633 2.75 10.204zm-86.344-238.509c-4.139 0-7.512-3.345-7.512-7.483 0-4.139 3.374-7.512 7.512-7.512h70.498c4.139 0 7.512 3.373 7.512 7.512s-3.373 7.483-7.512 7.483zm0 55.021c-4.139 0-7.512-3.373-7.512-7.512s3.374-7.512 7.512-7.512h70.498c4.139 0 7.512 3.373 7.512 7.512s-3.373 7.512-7.512 7.512zm0 54.993c-4.139 0-7.512-3.374-7.512-7.512 0-4.139 3.374-7.484 7.512-7.484h70.498c4.139 0 7.512 3.345 7.512 7.484 0 4.138-3.373 7.512-7.512 7.512zm17.263 83.707c-3.572 2.069-8.135.822-10.205-2.75-2.042-3.572-.823-8.136 2.749-10.176l61.059-35.264c3.6-2.041 8.164-.822 10.205 2.75 2.069 3.572.822 8.136-2.749 10.205z" fill="#2b4d66"/><path clip-rule="evenodd" d="m313.558 319.241v28.375c2.721.737 5.414 1.503 8.135 2.24 61.002 16.469 113.784 24.435 113.784 88.271v14.485h29.991v-34.497c0-65.962-56.41-72.255-119.964-89.973z" fill="#ffa95f" fill-rule="evenodd"/></g></svg>