<svg id="Flat" height="512" viewBox="0 0 512 512" width="512" xmlns="http://www.w3.org/2000/svg"><path d="m160 24h64v32h-64z" fill="#d0d2d4"/><path d="m288 56h-8.8a40.069 40.069 0 0 0 -39.2-32h-96a8 8 0 0 0 0 16h96a24.039 24.039 0 0 1 22.624 16h-102.624a16 16 0 0 0 -16 16v80h160v-80a16 16 0 0 0 -16-16z" fill="#3397e8"/><path d="m312 400c-35.888 0-64-52.71-64-120s28.112-120 64-120 64 52.71 64 120-28.112 120-64 120zm0-224c-11.6 0-23.424 10.345-32.442 28.382-10.033 20.064-15.558 46.918-15.558 75.618s5.525 55.554 15.558 75.618c9.018 18.037 20.842 28.382 32.442 28.382s23.424-10.345 32.442-28.382c10.033-20.064 15.558-46.918 15.558-75.618s-5.525-55.554-15.558-75.618c-9.018-18.037-20.842-28.382-32.442-28.382z" fill="#3397e8"/><circle cx="312" cy="168" fill="#d0d2d4" r="16"/><rect fill="#e9eef2" height="336" rx="16" width="176" x="136" y="152"/><path d="m312 224v248a16 16 0 0 1 -16 16h-144a16 16 0 0 1 -16-16v-248s24-8 48-8c40 0 40 24 80 24 24 0 48-16 48-16z" fill="#a3d4f7"/><g fill="#d0d2d4"><path d="m256 128h-112a8 8 0 0 1 0-16h112a8 8 0 0 1 0 16z"/><path d="m304 128h-16a8 8 0 0 1 0-16h16a8 8 0 0 1 0 16z"/></g></svg>