<svg width="332" height="326" viewBox="0 0 332 326" fill="none" xmlns="http://www.w3.org/2000/svg">
<path d="M165.979 0C74.3265 0 0 74.8261 0 167.131C0 240.959 47.559 303.591 113.544 325.71C121.844 327.25 124.874 322.09 124.874 317.657C124.874 313.683 124.728 303.175 124.645 289.233C78.4765 299.325 68.724 266.823 68.724 266.823C61.1918 247.513 50.298 242.373 50.298 242.373C35.2128 232.011 51.4185 232.219 51.4185 232.219C68.0807 233.405 76.8373 249.448 76.8373 249.448C91.6528 274.98 115.702 267.614 125.164 263.327C126.658 252.528 130.953 245.162 135.705 240.979C98.853 236.755 60.092 222.418 60.092 158.392C60.092 140.143 66.566 125.224 77.19 113.529C75.4678 109.305 69.7823 92.305 78.8085 69.312C78.8085 69.312 92.7525 64.8174 124.459 86.4371C137.697 82.7333 151.89 80.8813 166.021 80.8189C180.11 80.9021 194.324 82.7333 207.583 86.4579C239.268 64.8382 253.191 69.3328 253.191 69.3328C262.238 92.3466 256.553 109.326 254.851 113.55C265.496 125.244 271.908 140.164 271.908 158.413C271.908 222.606 233.105 236.734 196.129 240.875C202.084 246.036 207.396 256.232 207.396 271.817C207.396 294.165 207.189 312.185 207.189 317.657C207.189 322.131 210.177 327.333 218.601 325.689C284.482 303.549 332 240.938 332 167.131C332 74.8261 257.674 0 165.979 0Z" fill="white"/>
</svg>
