<?xml version="1.0" encoding="iso-8859-1"?>
<!-- Generator: Adobe Illustrator 19.0.0, SVG Export Plug-In . SVG Version: 6.00 Build 0)  -->
<svg version="1.1" id="Layer_1" xmlns="http://www.w3.org/2000/svg" xmlns:xlink="http://www.w3.org/1999/xlink" x="0px" y="0px"
	 viewBox="0 0 511.999 511.999" style="enable-background:new 0 0 511.999 511.999;" xml:space="preserve">
<path style="fill:#394049;" d="M125.267,291.795l-65.135,50.893c-4.283,3.347-10.201,3.658-14.812,0.779l-10.449-6.525
	c-4.734-2.956-4.955-9.772-0.42-13.027l74.986-53.836L125.267,291.795z"/>
<path style="opacity:0.3;enable-background:new    ;" d="M109.437,270.08l-64.625,46.398c5.618,10.288,11.862,17.864,18.915,23.403
	l61.541-48.085L109.437,270.08z"/>
<path style="fill:#394049;" d="M386.732,291.795l65.135,50.893c4.283,3.347,10.202,3.658,14.812,0.779l10.449-6.525
	c4.734-2.956,4.955-9.772,0.42-13.027l-74.986-53.836L386.732,291.795z"/>
<path style="opacity:0.3;enable-background:new    ;" d="M402.563,270.08l64.625,46.398c-5.618,10.288-11.862,17.864-18.915,23.403
	l-61.541-48.085L402.563,270.08z"/>
<path style="fill:#394049;" d="M256,227.665c24.947,0,29.086,8.757,38.999,11.715c5.933,1.769,153.921-0.695,194.276-1.58
	c5.968-0.13,11.26-3.834,13.433-9.394c1.572-4.023,3.362-8.589,4.763-12.161c1.611-4.109,2.609-8.423,2.967-12.821l1.521-18.691
	c0.523-6.429-4.023-12.16-10.403-13.112c-19.208-2.868-60.598-8.386-121.117-3.517c-62.567,5.033-98.204,22.728-124.439,22.728
	c-26.235,0-61.872-17.695-124.439-22.728c-60.519-4.869-101.909,0.649-121.117,3.517c-6.38,0.953-10.926,6.683-10.403,13.112
	l1.521,18.691c0.358,4.398,1.356,8.714,2.967,12.821c1.401,3.571,3.191,8.138,4.763,12.161c2.172,5.56,7.465,9.263,13.433,9.394
	c40.355,0.884,188.343,3.349,194.276,1.58C226.914,236.422,231.052,227.665,256,227.665z"/>
<path style="fill:#5F666F;" d="M129.974,192.856c-46.669-3.141-118.846-14.226-88.916,83.354
	c18.524,60.393,44.456,69.62,88.916,69.62c31.861,0,79.283-9.236,91.879-69.62C234.449,215.826,207.034,198.043,129.974,192.856z"/>
<path style="opacity:0.2;enable-background:new    ;" d="M129.974,192.856c-39.738-2.674-97.952-11.092-95.897,46.698
	c1.977-51.412,57.544-43.481,95.897-40.9c63.581,4.28,93.361,17.138,94.76,55.421C226.163,211.274,196.662,197.345,129.974,192.856z
	"/>
<path style="fill:#5F666F;" d="M382.026,192.856c46.669-3.141,118.846-14.226,88.916,83.354
	c-18.525,60.393-44.456,69.62-88.916,69.62c-31.861,0-79.283-9.236-91.879-69.62C277.55,215.826,304.965,198.043,382.026,192.856z"
	/>
<path style="opacity:0.2;enable-background:new    ;" d="M382.026,192.856c39.738-2.674,97.952-11.092,95.897,46.698
	c-1.977-51.412-57.544-43.481-95.897-40.9c-63.581,4.28-93.361,17.138-94.76,55.421
	C285.837,211.274,315.337,197.345,382.026,192.856z"/>
<g>
	<path style="fill:#C3C4C7;" d="M27.311,200.149h-4.864c-4.494,0-8.137-3.642-8.137-8.137s3.643-8.137,8.137-8.137h4.864
		c4.494,0,8.137,3.642,8.137,8.137C35.448,196.506,31.805,200.149,27.311,200.149z"/>
	<path style="fill:#C3C4C7;" d="M489.552,200.149h-4.864c-4.494,0-8.137-3.642-8.137-8.137s3.643-8.137,8.137-8.137h4.864
		c4.494,0,8.137,3.642,8.137,8.137C497.689,196.506,494.047,200.149,489.552,200.149z"/>
</g>
<g>
	<path style="opacity:0.1;fill:#FFFFFF;enable-background:new    ;" d="M129.974,192.856
		c-46.669-3.141-118.846-14.226-88.916,83.354c4.257,13.879,8.907,25.049,14.081,34.032L168.09,197.29
		C157.083,195.239,144.398,193.827,129.974,192.856z"/>
	<path style="opacity:0.1;fill:#FFFFFF;enable-background:new    ;" d="M470.073,208.382L339.69,338.765
		c14.456,5.593,29.632,7.065,42.335,7.065c44.46,0,70.391-9.227,88.916-69.62C481.505,241.768,479.339,220.875,470.073,208.382z"/>
</g>
<g>
</g>
<g>
</g>
<g>
</g>
<g>
</g>
<g>
</g>
<g>
</g>
<g>
</g>
<g>
</g>
<g>
</g>
<g>
</g>
<g>
</g>
<g>
</g>
<g>
</g>
<g>
</g>
<g>
</g>
</svg>
