<svg id="Capa_1" enable-background="new 0 0 496.92 496.92" height="512" viewBox="0 0 496.92 496.92" width="512" xmlns="http://www.w3.org/2000/svg"><g><path d="m304.124 431.106h-109.614l-11.66 19.104 2.33 27.84c.89 10.67 9.81 18.87 20.52 18.87h84.52c10.71 0 19.63-8.2 20.52-18.87l2.33-27.84z" fill="#f9f7f8"/><path d="m250.545 478.05-2.33-27.84 11.66-19.104h-65.365l-11.66 19.104 2.33 27.84c.89 10.67 9.81 18.87 20.52 18.87h65.365c-10.71 0-19.63-8.2-20.52-18.87z" fill="#efedef"/><g id="XMLID_389_"><g><path d="m175.627 381.365 3.303 22.135 3.92 46.71h130.22l3.92-46.71 2.793-22.135z" fill="#efedef"/></g></g><g><g id="XMLID_387_"><g><path d="m175.627 381.365 3.303 22.135 3.92 46.71h65.365l-.555-6.612c-.908-10.817 7.627-20.098 18.482-20.098h49.17l1.678-20 2.793-22.135z" fill="#e5e1e5"/><path d="m388.93 0h-280.94c-4.25 0-7.7 3.45-7.7 7.7v38.93l44.969 12.172h226.756l24.615-12.172v-38.93c0-4.25-3.45-7.7-7.7-7.7z" fill="#efedef"/><path d="m333.589 266.256h-163.063l-20.196 48.934 9.26 70.47c.089.676.215 1.339.367 1.991l19.427 2.867 69.914 11.213c4.617.989 28.761 1.77 28.761 1.77h38.93c10.3 0 18.99-7.63 20.34-17.84l9.26-70.47z" fill="#f9f7f8"/><path d="m257.72 385.66-9.26-70.47-6.433-48.934h-71.5l-20.197 48.934 9.26 70.47c1.35 10.21 10.04 17.84 20.34 17.84h98.13c-10.3 0-18.99-7.63-20.34-17.84z" fill="#efedef"/><path d="m396.63 46.63-17.11 18.08-32.93 250.48h-196.26l-32.93-250.48-17.11-18.08z" fill="#fec165"/><path d="m198.42 46.63v-38.93c0-4.25 3.45-7.7 7.7-7.7h-98.13c-4.25 0-7.7 3.45-7.7 7.7v38.93l44.969 12.172h64.68z" fill="#e5e1e5"/><path d="m198.42 46.63h-98.13l17.11 18.08 32.93 250.48h98.13l-31.872-242.433c-.688-5.231-3.01-10.11-6.637-13.942z" fill="#fdb441"/></g></g><g><path d="m247.96 230.658c-29.116 0-52.804-23.688-52.804-52.804s23.688-52.804 52.804-52.804 52.804 23.688 52.804 52.804-23.688 52.804-52.804 52.804zm0-90.609c-20.845 0-37.804 16.959-37.804 37.804s16.959 37.804 37.804 37.804 37.804-16.959 37.804-37.804-16.959-37.804-37.804-37.804z" fill="#fef056"/></g><g><path d="m248.395 111.389c-4.142 0-7.5-3.358-7.5-7.5v-6.938c0-4.142 3.358-7.5 7.5-7.5s7.5 3.358 7.5 7.5v6.938c0 4.142-3.358 7.5-7.5 7.5z" fill="#fef056"/></g><g><path d="m300.568 133.36c-1.919 0-3.838-.732-5.303-2.196-2.929-2.929-2.929-7.678 0-10.607l4.905-4.906c2.929-2.929 7.677-2.929 10.607 0 2.929 2.929 2.929 7.678 0 10.607l-4.905 4.906c-1.464 1.463-3.384 2.196-5.304 2.196z" fill="#fef056"/></g><g><path d="m328.862 185.788h-6.938c-4.142 0-7.5-3.358-7.5-7.5s3.358-7.5 7.5-7.5h6.938c4.142 0 7.5 3.358 7.5 7.5s-3.357 7.5-7.5 7.5z" fill="#fef056"/></g><g><path d="m304.859 242.868c-1.919 0-3.839-.732-5.303-2.197l-4.906-4.906c-2.929-2.929-2.929-7.678 0-10.606 2.929-2.929 7.678-2.929 10.606 0l4.906 4.906c2.929 2.929 2.929 7.678 0 10.606-1.464 1.464-3.383 2.197-5.303 2.197z" fill="#fef056"/></g><g><path d="m247.526 266.256c-4.142 0-7.5-3.358-7.5-7.5v-6.938c0-4.142 3.358-7.5 7.5-7.5s7.5 3.358 7.5 7.5v6.938c0 4.142-3.358 7.5-7.5 7.5z" fill="#fef056"/></g><g><path d="m190.446 242.253c-1.919 0-3.838-.732-5.303-2.196-2.929-2.929-2.929-7.678 0-10.607l4.905-4.906c2.929-2.929 7.677-2.929 10.607 0 2.929 2.929 2.929 7.678 0 10.607l-4.905 4.906c-1.464 1.464-3.384 2.196-5.304 2.196z" fill="#fef056"/></g><g><path d="m173.995 184.919h-6.938c-4.142 0-7.5-3.358-7.5-7.5s3.358-7.5 7.5-7.5h6.938c4.142 0 7.5 3.358 7.5 7.5s-3.358 7.5-7.5 7.5z" fill="#fef056"/></g><g><path d="m195.966 132.746c-1.919 0-3.839-.732-5.303-2.197l-4.906-4.906c-2.929-2.929-2.929-7.678 0-10.606 2.929-2.929 7.678-2.929 10.606 0l4.906 4.906c2.929 2.929 2.929 7.678 0 10.606-1.464 1.464-3.383 2.197-5.303 2.197z" fill="#fef056"/></g></g><path d="m266.649 465.301h-37.378c-4.299 0-7.784-3.485-7.784-7.784v-14.611c0-4.299 3.485-7.784 7.784-7.784h37.378c4.299 0 7.784 3.485 7.784 7.784v14.611c0 4.299-3.485 7.784-7.784 7.784z" fill="#d7d0d6"/><path d="m244.592 457.517v-14.611c0-4.299 3.485-7.784 7.784-7.784h-23.105c-4.299 0-7.784 3.485-7.784 7.784v14.611c0 4.299 3.485 7.784 7.784 7.784h23.105c-4.299 0-7.784-3.485-7.784-7.784z" fill="#c9bfc8"/></g></svg>