<svg width="513" height="513" viewBox="0 0 513 513" fill="none" xmlns="http://www.w3.org/2000/svg">
<g clip-path="url(#clip0)">
<path d="M443.966 45.03C409.641 18.044 336.19 1.062 333.075 0.357996C327.331 -0.950004 321.614 2.646 320.307 8.39C320.131 9.163 320.042 9.954 320.041 10.747C320.041 25.147 290.494 42.747 256.041 42.747C221.588 42.747 192.041 25.147 192.041 10.747C192.043 7.501 190.567 4.431 188.03 2.406C185.522 0.320996 182.182 -0.469004 179.006 0.272996C175.891 0.976996 102.462 17.98 68.073 44.945C32.553 72.977 22.441 208.06 21.374 223.356C21.082 227.703 14.074 460.11 18 462C43.062 473.606 80.039 477.136 107.5 480.081H106.707C106.714 484.025 108.896 487.643 112.382 489.489C114.11 490.428 155.987 512.081 256.041 512.081C356.095 512.081 397.972 490.428 399.7 489.489C403.185 487.643 405.368 484.025 405.375 480.081C432.829 477.134 455.944 483.103 481 471.5C484.934 469.616 490.996 227.708 490.708 223.356C489.641 208.06 479.529 72.977 443.966 45.03Z" fill="#03A9F4"/>
<path d="M107.5 480C101.609 480 100.168 472.891 100.168 467L106.707 181.414C107.579 161.025 101.116 140.998 88.488 124.966C84.396 120.729 84.513 113.976 88.75 109.883C92.884 105.891 99.437 105.891 103.57 109.883C120.385 129.827 129.115 155.349 128.039 181.414L121.5 467C121.502 472.891 113.391 480 107.5 480Z" fill="#0288D1"/>
<path d="M401.5 481C395.609 481 388.166 475.891 388.166 470L384.04 181.414C382.953 155.345 391.676 129.815 408.488 109.862C412.581 105.625 419.333 105.507 423.571 109.6C427.808 113.693 427.925 120.445 423.833 124.683C423.747 124.772 423.66 124.859 423.571 124.945C410.946 140.986 404.49 161.021 405.374 181.414L409.5 470C409.5 475.891 407.391 481 401.5 481Z" fill="#0288D1"/>
<path d="M337.491 2.53403C335.054 0.49003 331.823 -0.34097 328.702 0.27303C304.7 5.14003 280.44 8.63703 256.041 10.748C231.641 8.63803 207.382 5.14103 183.38 0.27303C180.259 -0.33797 177.029 0.49303 174.591 2.53403C172.137 4.55603 170.714 7.56803 170.708 10.747C170.708 42.747 214.825 64.08 256.041 64.08C297.257 64.08 341.374 42.747 341.374 10.747C341.369 7.56803 339.945 4.55603 337.491 2.53403Z" fill="#1976D2"/>
</g>
<defs>
<clipPath id="clip0">
<rect width="512.081" height="512.081" fill="white"/>
</clipPath>
</defs>
</svg>
