<svg width="512" height="512" viewBox="0 0 512 512" fill="none" xmlns="http://www.w3.org/2000/svg">
<path d="M498.81 435.172L385.37 321.732L261.486 32.6882C259.423 27.8763 255.002 24.4884 249.821 23.7484L84.6354 0.152973C76.4436 -1.02 68.8358 4.67987 67.6648 12.8837C61.826 53.8177 90.3763 91.8778 131.308 97.7277L195.367 106.88L261.723 261.724L106.88 195.367L97.7271 131.309C91.8783 90.3769 53.8211 61.8255 12.8831 67.6654C4.6853 68.8354 -1.01856 76.4342 0.152409 84.636L23.7479 249.821C24.4878 255.003 27.8758 259.425 32.6876 261.487L321.733 385.37L435.172 498.809C452.758 516.395 481.222 516.398 498.811 498.809C516.395 481.225 516.399 452.76 498.81 435.172V435.172ZM340.902 362.115C339.553 360.766 337.96 359.687 336.206 358.935L52.2542 237.233L32.3357 97.7907C50.4942 101.455 65.2639 116.196 68.0298 135.552L78.3746 207.955C79.1146 213.137 82.5035 217.559 87.3154 219.621L284.372 304.068C290.008 306.484 296.55 305.225 300.886 300.887C305.223 296.55 306.483 290.01 304.067 284.372L219.62 87.3149C217.558 82.503 213.137 79.1141 207.955 78.3741L135.551 68.0294C116.196 65.2634 101.453 50.4938 97.7901 32.3352L237.233 52.2528L358.934 336.204C359.686 337.958 360.765 339.552 362.115 340.901L379.678 358.464L358.465 379.676L340.902 362.115ZM379.678 400.891L400.89 379.678L422.103 400.891L400.891 422.103L379.678 400.891ZM477.597 477.597C471.735 483.459 462.248 483.461 456.385 477.597L422.104 443.316L443.316 422.103L477.597 456.384C483.459 462.245 483.461 471.734 477.597 477.597Z" fill="url(#paint0_linear)"/>
<defs>
<linearGradient id="paint0_linear" x1="153.324" y1="383.638" x2="383.638" y2="153.323" gradientUnits="userSpaceOnUse">
<stop stop-color="#4787C1"/>
<stop offset="1" stop-color="#00C0FF"/>
</linearGradient>
</defs>
</svg>
