<svg width="336" height="273" viewBox="0 0 336 273" fill="none" xmlns="http://www.w3.org/2000/svg">
<path d="M336 32.319C323.505 37.8 310.191 41.433 296.31 43.197C310.59 34.671 321.489 21.273 326.613 5.124C313.299 13.062 298.599 18.669 282.933 21.798C270.291 8.337 252.273 0 232.617 0C194.481 0 163.779 30.954 163.779 68.901C163.779 74.361 164.241 79.611 165.375 84.609C108.108 81.816 57.435 54.369 23.394 12.558C17.451 22.869 13.965 34.671 13.965 47.376C13.965 71.232 26.25 92.379 44.562 104.622C33.495 104.412 22.638 101.199 13.44 96.138C13.44 96.348 13.44 96.621 13.44 96.894C13.44 130.368 37.317 158.172 68.628 164.577C63.021 166.11 56.91 166.845 50.568 166.845C46.158 166.845 41.706 166.593 37.527 165.669C46.452 192.948 71.778 213.003 101.892 213.654C78.456 231.987 48.699 243.033 16.485 243.033C10.836 243.033 5.418 242.781 0 242.088C30.513 261.765 66.675 273 105.672 273C232.428 273 301.728 168 301.728 76.986C301.728 73.941 301.623 71.001 301.476 68.082C315.147 58.38 326.634 46.263 336 32.319Z" fill="white"/>
</svg>
